<svg version="1" xmlns="http://www.w3.org/2000/svg" width="1386.667" height="1386.667" viewBox="0 0 1040.000000 1040.000000"><path d="M742.1 24.8c-4.4 18.8-19.1 37.4-40.9 51.7-10 6.5-31.6 18.2-60.2 32.5-39.7 19.9-57 32-75 52.5-23 26.1-34.6 54.4-40.4 98.9l-.5 3.9 11.7-.6c49.4-2.7 103.5-22.9 145.4-54.5 5.1-3.8 14.5-11.5 20.8-17 6.3-5.5 11.7-9.8 11.9-9.6.5.5-13.1 21.4-19.8 30.4-7.7 10.4-26.6 29.6-38.6 39.3-29.9 24.1-64.2 40.6-99.4 47.6l-13.4 2.7 10.9 3.2c17.1 5 22.7 6 40.5 7.7 17.6 1.6 23.8 1.2 40.4-2.1 19.3-3.9 42.7-14 59-25.5 11.6-8.2 30.3-26.9 38.4-38.4 7.7-10.9 17.7-31.3 22.4-45.5 12.8-38.6 14.6-84.4 5.2-130.2-3.7-18.1-13.9-50.7-16.4-52.2-.4-.3-1.3 2.1-2 5.2z"/><path d="M417.5 157.1c-152.5 8.1-272.3 52.4-294.7 108.8-1.8 4.6-2.2 7.6-2.2 17.1 0 10.2.3 12.2 2.6 17.7 11.2 26.4 43.2 50.5 92.4 69.7 97.4 37.9 250.3 50 381.4 30 146.9-22.3 235.7-80.1 210.6-136.8-7-15.8-25.1-34-45.4-45.8l-5-2.9-6 12.3c-3.3 6.8-7.9 15-10.1 18.3-3.9 6-4 6-2 8.1 1 1.1 1.9 2.3 1.9 2.7 0 .4-2.8 2.1-6.2 3.8-4.2 2.1-9.5 6.3-15.8 12.3-5.2 5-11.3 10.7-13.5 12.5-2.8 2.3 3.2-.4 19.9-8.9l23.9-12.1 3.9 3.8c12.6 12.2 23.6 33.5 25.5 49.1l.6 5.5-18.9-.7c-10.4-.3-25.8-.9-34.2-1.2l-15.3-.6-3.1-6.2c-3.1-6.1-12.5-20.6-13.3-20.6-.3 0-2.8 1.5-5.7 3.4-13.1 8.3-31.7 15.9-48.3 19.6-5.5 1.2-10.7 2.5-11.5 2.8-.8.3 10 .9 24 1.4 14 .4 48.4 1.4 76.4 2.3 28 .8 51.1 1.7 51.3 1.8.1.2-27.5.9-61.5 1.5-33.9.7-83.7 1.7-110.7 2.2-26.9.6-71 1.5-98 2-45.3.9-49.5 1.1-56 3.1-14.6 4.4-32.8 2.3-40.1-4.7-6.3-5.9-3.3-12 8.1-16.4 8.3-3.2 23.4-3.3 31.8-.2 7.5 2.8 10.8 3 53.7 4.2 20.1.5 44.2 1.2 53.5 1.5l17 .5-10.5-2.5c-9.9-2.4-38.2-11.6-47.1-15.3l-4.2-1.8 15.9-1.2c18.8-1.4 30.9-3.8 48.1-9.4 14.4-4.7 39.8-17 52.3-25.3 12.7-8.5 12.4-7.7 3.7-11.9l-7.5-3.7-9.9 4c-13.2 5.2-30.6 10.5-45.1 13.5-22.6 4.8-55.2 7.3-55.2 4.3 0-5.5 3.6-28.5 6-38.6 1.7-6.8 2.8-12.6 2.6-12.9-.8-.7-24.1-3.9-38.8-5.3-10.4-.9-13.8-1.6-13.8-2.6 0-2.3 7.1-29.7 7.8-30.4 1.2-1.1 49.1 2 58.3 3.7 1.9.4 2.8-.1 3.6-1.8.6-1.3 3.6-5.9 6.8-10.3 3.2-4.4 5.9-8.5 6.2-9.1.4-1.2-15.9-2.8-46.7-4.4-20.4-1.1-71.9-1.1-93.5.1zm47.5 21.8c0 1.6-6 26.6-6.9 28.7-.9 2.1-1.4 2.1-14.8 1.6-27-.9-69.1 2.1-103.2 7.4-9 1.4-16.5 2.3-16.7 2.1-1-.9-5.2-22.3-4.5-23 2.3-2.3 48-10.6 76.1-13.7 28.4-3.2 70-5 70-3.1zm-161.5 28.8c.9 4.3 2.1 9.3 2.5 11.1.8 2.9.6 3.4-1.3 4.2-3.2 1.4-43.1 13-44.5 13-1.8 0-18.2-12.3-17.8-13.4.4-1.5 21.9-10.3 40.6-16.7 9.6-3.2 17.8-5.9 18.2-5.9.4 0 1.4 3.5 2.3 7.7zm-66.4 26.9c4.1 3 7.8 5.9 8.3 6.4.5.5-6.5 4.6-16.4 9.5l-17.4 8.7-8-3.5c-4.4-1.9-8.2-4-8.4-4.5-.4-1.4 30.6-21.9 33.4-22.1.6-.1 4.4 2.4 8.5 5.5zm-43.4 27.6c4 1.8 7.3 3.5 7.3 3.8 0 .3-2.6 2.3-5.7 4.5s-9.7 7.9-14.7 12.6l-9.1 8.6-5-1.2c-5.8-1.3-5.8-1.6-.7-9.4 3.5-5.3 18.8-22.1 20.1-22.1.3 0 3.9 1.5 7.8 3.2zm-31.5 36.2l2.8.6-4.9 9.8c-2.7 5.3-5.7 12.4-6.7 15.7-2.7 9.1-3.7 9.1-2.9 0 1.1-13.5 5.2-27.8 7.8-27.1.6.3 2.4.7 3.9 1z"/><path d="M684 214.9c-1.9 1.6-3.2 3.3-2.7 3.7.8.8 4.4-2.1 5.8-4.8 1.3-2.4 1-2.3-3.1 1.1zM947.8 249.8c-.6 6.4-3.5 10.3-13.7 18.5-18.7 15.2-24.1 22.4-26.1 35.2-1.1 6.9-.7 13.5.9 13.5 1.9 0 12.7-4.2 18-7 3.2-1.7 9.1-6.1 13.2-9.8l7.3-6.7-2.4 4.5c-3.9 7-16.5 19.2-23.7 22.9-3.4 1.7-7 3.1-8 3.2-1 0-.5.5 1.2 1 5.5 1.8 17.9.3 24.9-3 7-3.4 14.1-10.3 17.6-17.1 3.4-6.6 5.3-17.4 4.5-25.4-1-10.8-6.4-25.9-11.8-33-1.3-1.8-1.5-1.5-1.9 3.2zM848 282.3c0 .2.7 1.8 1.6 3.6 2.8 5.6 1.5 12.9-4.9 27.9-3.1 7.3-6.1 16.1-6.7 19.6-1.5 9.3.7 19.4 6.2 28.4l2.1 3.4 4-3.9c6.4-6.1 13.1-17.2 16.3-26.9 2.8-8.6 2.9-8.8 3.2-4.8.8 10.5-5.2 27-12.9 35.7l-4 4.7 4.2-1.5c13.9-4.9 23.3-16 26-30.7 3.1-16.7-6.9-36.8-24.4-49.2-6.2-4.4-10.7-7-10.7-6.3z"/><path d="M116.1 312.1c-5.1 11.2-6.5 18.2-6.5 31.4-.1 14.1 1.5 21.1 7.5 33.1 26 52.8 123 94.8 248.9 107.9 54.5 5.6 99.5 5.8 155.7.5 11.4-1.1 21.5-2 22.3-1.9 5.9.3-43.7 11.5-70 15.8-42.1 7-67 9.1-112 9.8-39.9.6-53.2-.2-72.6-4.1-45-9.2-81.8-22.2-140.2-49.6-8.5-3.9-15.5-7-15.7-6.8-.4.4 20.5 19.4 27 24.6 9.9 7.8 29.3 20.2 42.5 27.2 24.1 12.8 51.6 22.6 76.5 27.4 11.3 2.1 45.1 11.1 53 14.1 15.7 5.9 27.3 13.9 33.4 23.2 4.8 7.1 7 15.8 8.1 31.6 1.3 16.6 2 19.7 5.8 25.7 5.2 8.3 16.6 12.3 37.9 13.6 25.8 1.5 80.5-4.9 120.1-14.2 8-1.9 14.7-3.2 14.9-3 .7.7-27.5 11.8-46.2 18.2-51.7 17.6-106.6 28.3-161 31.2-14 .8-15.9.7-29.5-1.9-42.8-8-87.6-23.7-140.4-48.9-19.1-9.1-19.3-9.1-9.1.7 31.8 30.5 76.4 55.2 120.5 66.7 15.8 4.1 34.5 7.2 48.5 8.2 25.4 1.6 39.6 7.9 45.6 20.1 1.8 3.8 2.3 6.4 2.2 12.8 0 8.6-1.3 14.3-8.6 37.5-5.2 16.8-7.2 27.8-6.4 35.5.8 8.2 3.6 11.8 12 16 10.1 5 24.1 6.7 51.2 6.3 11.2-.2 20.1 0 19.7.3-1.3 1.2-23.1 6-37 8.1-11.1 1.8-18.2 2.2-37.7 2.2-26.5-.1-41.4-1.7-65.4-7.5-6.8-1.6-12.6-2.7-12.8-2.5-.6.6 15.5 11 22.7 14.6 3.6 1.8 11.8 5.2 18.4 7.6 14.1 5.2 19.7 8.6 27.1 16.6 6.3 6.7 8.4 10.6 22.4 41.7 14.2 31.2 24.4 51.3 31.2 61.1 18.2 26.5 44.4 47.9 78.4 64.1 13.8 6.5 31.2 13.2 32.5 12.4.5-.3-1.1-4.9-3.4-10.3-8.4-18.9-14.8-42.3-18.3-67.2-2.7-19.1-2.4-60.6.5-79.5 7.9-50.4 28-88.9 58.4-111.5 11.6-8.6 20-12.3 37.8-16.5 35.8-8.5 72.1-25.9 100.9-48.2 11.5-9 32.2-29.8 40.2-40.5 7.5-10.1 14.8-22.1 18.5-30.4l2.6-5.8-10.4 10c-20 19.2-40.2 35-64.1 49.9-15.8 10-48.4 26.7-56.4 29-29.5 8.6-60.3 15.3-85.3 18.4-33.9 4.4-79.1 7.1-86.5 5.3-3.7-.9-3.8-1-1-1.1 5.6-.2 47.9-8.2 62-11.7 57.1-14.2 98.1-39 132.6-79.9 7.1-8.5 13.3-16.5 53.6-69 8.9-11.6 19.7-25.3 24.1-30.5 10.8-12.9 29.7-31 41.1-39.5 28-20.7 27-19.8 62.6-52.5 10.4-9.5 22.7-23.3 31-34.5 17.9-24.1 33.3-57.5 37.8-81.5 3.2-17.5 3.2-17.5-2.3-7.4-18.9 35.4-48.3 73.7-74.1 97-28.2 25.3-67.4 46.1-109.7 58.3-13.8 3.9-34.1 8.5-34.8 7.8-.2-.2 3.5-1.8 8.4-3.6 27.3-10.3 57.4-27.9 78.5-45.9 5.6-4.8 14.7-12.4 20.2-16.8 21.6-17.5 27.3-27.4 23-40.5-4.7-14.5-16.2-33.9-27.2-45.8l-5.8-6.4-7 5.3c-76.5 57.3-260.5 85.5-424 64.9-117.4-14.7-208.3-52.9-232.3-97.7l-3.1-5.7-3 6.6zM970.9 352c-3.8 5.3-9.3 7.5-25.9 10.5-17.7 3.2-24.5 6.2-31.8 13.9-6.4 6.8-10.4 14.3-8.2 15.6 4.8 3 25 3 35.5.1 3.8-1.1 7.1-1.8 7.3-1.6.6.6-8.5 5.6-13.6 7.5-7 2.7-18.8 4.1-25.3 3.1-3-.5-5.5-.8-5.6-.7-.1.1 1.9 1.6 4.5 3.4 11.9 8.1 26.7 9.5 39.2 3.6 16.7-7.8 27.5-28.2 26.8-50.3l-.3-8.8-2.6 3.7z"/><path d="M103 401.9c-5.9 1.9-14.2 5.9-17.5 8.5-1.9 1.5-1.9 1.5 1.4 1.6 5.3 0 10.4 3.6 18.6 13.2 8.9 10.3 13.9 14.2 20.8 16.3 6.6 2 17.7 2 17.7.1 0-3.6-8.6-18.1-14-23.7-3.2-3.2-5.5-5.9-5.1-5.9.5 0 3.5 1.7 6.7 3.8 6.9 4.5 12.4 10.5 15.8 17.4 2.1 4.3 2.5 4.6 3.1 2.7 1.3-3.9-.6-13.2-3.8-19.3-3.8-7.1-10.7-12.9-17.9-15.1-6.9-2-18.9-1.8-25.8.4zM92 450.5c-11.9 3-19.3 3.2-23.7.5l-3.3-2 2 5.2c4 10.6 13.7 22.2 22.8 27.1 9.6 5.2 21.8 5.5 31.2.7 3.7-1.9 11.9-10 13.9-13.8 1.1-2.1.9-2-4.6.7-7.4 3.8-13 5.1-21.8 5-7.3 0-14.3-1.7-7.8-1.8 8.3-.2 19-3.8 27.6-9.3l4.8-3.1-2.8-2.9c-8-8.4-21.6-10.6-38.3-6.3zM146.5 548.2c-5 .9-8.5 2.8-5.2 2.8 2.2 0 8.4 5.6 10.3 9.3.9 1.6 3.1 7.3 5.1 12.6 7.5 20.8 13.6 27.1 31.1 32.5 2.1.7 2.2.5 2.2-6.6 0-8.8-2-17.5-5.7-25.4-1.5-3.3-2.9-6.4-3.1-6.9-1.2-2.6 4.2 3.4 7.5 8.3 4.9 7.4 7.4 14.3 8.2 22.7l.7 7 2.4-5c2.1-4.2 2.4-6.6 2.5-15 0-9-.3-10.5-2.8-15.3-3.9-7.5-8.7-12.4-15.7-16.1-10.2-5.4-24.7-7.4-37.5-4.9zM101.6 560.5c-8.1 2.3-17.3 7.5-23.8 13.4l-6 5.6 5-.3c6.3-.5 9.8 1.3 22.9 11.5 11.7 9.2 18.4 12.5 26.9 13.1 7.2.5 17.4-1.4 17.4-3.2 0-2.4-7.7-13.1-13.1-18.2-3-2.8-7.6-6.3-10.2-7.8-2.6-1.6-4.6-3-4.4-3.3.3-.2 3.1.6 6.3 1.8 10.5 3.9 19.7 10.9 25.2 19.2 1.4 2 2.6 3.6 2.7 3.5.9-.9-2-12.9-4-17.3-3-6.3-10.7-13.8-17.2-16.7-6.1-2.7-20.5-3.4-27.7-1.3zM741.7 562.7c1.9 6.8.7 11.9-6 24.6-7.2 13.6-9.7 20.7-9.7 27.8 0 5 3.1 16.2 5.3 19.3 1.2 1.7 1.7 1.5 7-3.4 6.9-6.3 12.9-15.1 15.9-23.3 2.8-7.7 3.6-4.9 1.3 4.8-1.9 8.3-6.5 17.2-12.2 23.5l-4.4 4.9 3.8-1.1c6.9-1.9 12.9-5.6 17.6-10.8 11-12.2 12-29.9 2.6-46.5-3.6-6.4-11.3-15.1-17.3-19.3l-4.7-3.4.8 2.9zM815.7 569.6c-.9 4.9-5.6 8.7-18 14.8-14.2 6.9-19.6 12.2-22.7 22.3-1.1 3.6-2 7-2 7.5 0 1.4 9.8.1 17.5-2.3 3.3-1 8.1-3.2 10.8-4.8 5.6-3.6 6.2-2.6 1.1 1.8-6.1 5.4-11.6 8.4-19.4 10.7l-7.5 2.2 4.5 1.2c20.8 5.8 38.5-7.5 40.7-30.5.6-6.4-1-17.9-3.1-23l-1.2-3-.7 3.1zM97 611.7c0 7.2 7.8 23.7 14.9 31.5 16.2 17.7 42.7 17.5 56.4-.5l2.6-3.4-5.9 2.3c-8 3.3-18.5 4-27.9 2-9.8-2.1-10.7-3.3-2.3-2.8 3.7.2 9.9-.3 14-1.2 8-1.7 19.2-6.3 19.2-7.9 0-1.7-9.6-10.4-13.7-12.5-7.6-3.9-14.1-4.6-29.1-3.3-7.6.6-14.5 1-15.3.7-.7-.2-2.6-.7-4.1-1-1.4-.3-4-1.8-5.7-3.2-2.8-2.3-3.1-2.4-3.1-.7zM811.6 626.5c-2.4 3.7-8.2 6-20.1 7.9-11.7 2-18.8 4.9-23.8 10-4.8 4.7-8.3 11.4-6.8 12.9 1.9 1.9 19 2.1 26 .3 3.5-.9 6.6-1.5 6.8-1.3.1.2-1.9 1.6-4.5 3-6.8 3.7-17.4 6-24.2 5.3-5.2-.5-5.4-.5-3.5 1 6.9 5.5 18.7 7.9 27.5 5.4 9.3-2.6 17.9-11.2 22-22 2.4-6.5 4.1-18.9 3.1-22.7l-.7-2.6-1.8 2.8z"/></svg>